<svg t="1696568779481" class="icon" viewBox="0 0 1024 1024" version="1.1" xmlns="http://www.w3.org/2000/svg" p-id="9838" width="400" height="400"><path d="M609 231.8s109.3-46.5 164.4-20.3c0 0-128.9 115.3-118.7 164.2l-84-43.7-38.3-0.9c-0.1 0 25.7-81.7 76.6-99.3z" fill="#469E78" p-id="9839"></path><path d="M654.8 389.7c-2.2 0-4.4-0.5-6.5-1.6L567 345.9l-35.1-0.8c-4.4-0.1-8.5-2.3-11.1-5.8-2.6-3.6-3.3-8.2-2-12.4 1.1-3.6 28.4-88.2 85-108.2 9-3.8 116.6-47.9 175.5-19.9 4.2 2 7.2 6 7.9 10.7 0.7 4.6-1 9.3-4.5 12.5-51 45.7-120.2 122.7-114.3 150.9 1.1 5.3-0.9 10.8-5.3 14-2.3 1.9-5.3 2.8-8.3 2.8z m-102.3-72.2l18.5 0.5c2.1 0 4.2 0.6 6.2 1.6l65.6 34.1c6.4-22.8 25.3-51.8 57.1-87.7 16.7-18.8 33.6-35.8 45.9-47.6-43.6-5.2-106.9 16.1-131.2 26.4-0.3 0.1-0.6 0.2-0.9 0.4-28.5 9.6-50 46.7-61.2 72.3z m56.5-85.7z" fill="#333333" p-id="9840"></path><path d="M530.4 243.6S587.3 115 707.8 122.8c0 0-103.2 75.1-85.5 224l-117.6-13.5 25.7-89.7z" fill="#469E78" p-id="9841"></path><path d="M622.3 363.3c-0.6 0-1.2 0-1.9-0.1l-117.6-13.4c-4.8-0.6-9.2-3.2-11.9-7.2-2.7-4-3.5-9.1-2.1-13.7l25.7-89.7c0.2-0.7 0.5-1.4 0.8-2.1 2.5-5.7 63.1-139.1 193.5-130.6 6.9 0.5 12.8 5.2 14.8 11.9 1.9 6.7-0.5 13.8-6.1 17.9-3.9 2.8-95.1 71.8-78.8 208.7 0.6 5-1.1 10-4.7 13.6-3.1 3-7.3 4.7-11.7 4.7z m-96.4-44.2l78.2 8.9c-4.7-88.6 30.8-150.1 59.5-184.8-74.2 19.2-113.3 96.8-117.8 106.2l-19.9 69.7z" fill="#333333" p-id="9842"></path><path d="M408.4 231.8S299.1 185.3 244 211.5c0 0 128.9 115.3 118.7 164.2l84.2-43.7 38.3-0.9c-0.1 0-25.8-81.7-76.8-99.3z" fill="#469E78" p-id="9843"></path><path d="M362.6 389.7c-3 0-6-1-8.5-2.9-4.3-3.3-6.4-8.7-5.3-14 5.9-28.2-63.3-105.2-114.3-150.9-3.5-3.1-5.2-7.8-4.5-12.5 0.7-4.6 3.6-8.6 7.9-10.7 58.9-27.9 166.5 16.1 175.5 19.9 56.7 19.9 83.9 104.6 85 108.2 1.3 4.2 0.6 8.8-2 12.4-2.6 3.6-6.7 5.8-11.1 5.8l-35.1 0.8-81.2 42.3c-2 1.1-4.2 1.6-6.4 1.6z m-90.9-171.4c12.3 11.9 29.2 28.8 45.8 47.6 31.8 35.9 50.7 64.9 57.1 87.7l65.6-34.1c1.9-1 4-1.5 6.2-1.6l18.5-0.4c-11.2-25.6-32.7-62.7-61.1-72.5-0.3-0.1-0.6-0.2-0.9-0.4-24.3-10.2-87.7-31.4-131.2-26.3z" fill="#333333" p-id="9844"></path><path d="M487 243.6S430.1 115 309.6 122.8c0 0 103.2 75.1 85.5 224l117.6-13.5-25.7-89.7z" fill="#469E78" p-id="9845"></path><path d="M395.1 363.3c-4.4 0-8.6-1.7-11.7-4.9-3.6-3.6-5.3-8.6-4.7-13.6 16.4-137.6-77.8-208-78.8-208.7-5.6-4.1-8.1-11.3-6.1-17.9s7.8-11.4 14.8-11.9c130.6-8.5 191 124.9 193.5 130.6 0.3 0.7 0.6 1.4 0.8 2.1l25.7 89.7c1.3 4.7 0.6 9.7-2.1 13.7s-7 6.7-11.9 7.2L397 363.2c-0.7 0.1-1.3 0.1-1.9 0.1z m-41.4-220c28.7 34.8 64.2 96.3 59.5 184.8l78.2-8.9-20-69.7c-4.4-9.4-43.4-87-117.7-106.2z" fill="#333333" p-id="9846"></path><path d="M567.9 272.7c0 91.9-25.9 152.4-58 152.4s-58-60.5-58-152.4 58-194.4 58-194.4 58 102.5 58 194.4z" fill="#469E78" p-id="9847"></path><path d="M509.9 439c-43 0-72-66.9-72-166.4 0-94.5 57.3-197 59.8-201.3 2.5-4.4 7.2-7.1 12.2-7.1s9.7 2.7 12.2 7.1c2.4 4.3 59.8 106.8 59.8 201.3 0 99.6-28.9 166.4-72 166.4z m0-329.7c-16.5 35-43.9 102.3-43.9 163.4C466 363 491.5 411 509.9 411s43.9-48.1 43.9-138.3c0-61.2-27.4-128.4-43.9-163.4z" fill="#333333" p-id="9848"></path><path d="M767.9 641.7c0 118.7-49.9 230.5-131.8 284.3-38.2 25.1-82.2 19.7-129 19.7-45.9 0-89 5.9-126.7-18.2-83.2-53.3-134.1-166-134.1-285.8 0-174.1 113.7-315.2 260.8-315.2s260.8 141.1 260.8 315.2z" fill="#F7E74D" p-id="9849"></path><path d="M425.6 947.3c12.9 1 26.2 0.8 39.7 0.5-13-0.1-26.2-0.5-39.7-0.5zM696.7 446c17.6 46.3 27.3 98 27.3 152.6 0 136.2-57.2 264.4-151.2 326.1-24.7 16.2-51.6 21.3-79.9 22.7 46.6 0 90.4 5.3 128.5-19.7 81.9-53.8 131.8-165.6 131.8-284.3 0-74.8-20.9-143.4-56.5-197.4z" fill="#C9BA61" p-id="9850"></path><path d="M463.2 960.4c-30.9 0-62-2.9-90.4-21.1-85.4-54.7-140.6-171.5-140.6-297.6 0-87.9 27.8-170.2 78.4-231.8 51.6-62.8 121.3-97.5 196.4-97.5 75.1 0 144.8 34.6 196.4 97.5 50.6 61.6 78.4 143.9 78.4 231.8 0 60.8-12.6 120.4-36.4 172.3-24.4 53.3-59.6 96.1-101.7 123.7-36.1 23.7-76.7 23-115.9 22.3-14.2-0.2-29-0.2-43.1 0.1-7.1 0.1-14.3 0.3-21.5 0.3z m43.9-619.9c-138.4 0-246.8 132.3-246.8 301.2 0 116.8 50.1 224.3 127.7 274 27.8 17.8 59.5 17.1 96.1 16.3 14.3-0.3 29.6-0.3 44.2-0.1 38.2 0.7 71.2 1.2 100.1-17.7 76.2-50 125.5-157 125.5-272.6 0-168.8-108.4-301.1-246.8-301.1z" fill="#333333" p-id="9851"></path><path d="M258.7 692.4c-3.5 0-7-1.3-9.8-3.9-5.6-5.4-5.7-14.3-0.3-19.8l318.8-329.3c5.4-5.6 14.3-5.7 19.8-0.3 5.6 5.4 5.7 14.3 0.3 19.8L268.7 688.2c-2.7 2.8-6.4 4.2-10 4.2zM302.6 861.5c-3.5 0-7-1.3-9.7-3.9-5.6-5.4-5.7-14.3-0.3-19.8l401.3-414.5c5.4-5.6 14.3-5.7 19.8-0.3 5.6 5.4 5.7 14.3 0.3 19.8L312.7 857.3c-2.8 2.8-6.4 4.2-10.1 4.2zM447.9 954.8c-3.5 0-7-1.3-9.7-3.9-5.6-5.4-5.8-14.2-0.4-19.8l310.4-323.7c5.4-5.6 14.2-5.8 19.8-0.4 5.6 5.4 5.8 14.2 0.4 19.8L458.1 950.4c-2.8 2.9-6.5 4.4-10.2 4.4z" fill="#333333" p-id="9852"></path><path d="M758.4 692.4c-3.7 0-7.3-1.4-10.1-4.3L429.5 358.9c-5.4-5.6-5.2-14.4 0.3-19.8 5.6-5.4 14.4-5.2 19.8 0.3l318.8 329.3c5.4 5.6 5.2 14.4-0.3 19.8-2.7 2.6-6.2 3.9-9.7 3.9zM714.5 861.5c-3.7 0-7.3-1.4-10.1-4.3L303.1 442.8c-5.4-5.6-5.2-14.4 0.3-19.8 5.6-5.4 14.4-5.2 19.8 0.3l401.3 414.5c5.4 5.6 5.2 14.4-0.3 19.8-2.7 2.6-6.2 3.9-9.7 3.9zM569.1 954.8c-3.7 0-7.4-1.4-10.1-4.3L248.6 626.8c-5.4-5.6-5.2-14.5 0.4-19.8 5.6-5.4 14.5-5.2 19.8 0.4L579.2 931c5.4 5.6 5.2 14.5-0.4 19.8-2.7 2.7-6.2 4-9.7 4z" fill="#333333" p-id="9853"></path><path d="M296.4 605.8c5.9 0.3 11.1-4.2 11.6-10.2 7.3-77.9 56.2-126 56.7-126.5 4.5-4.3 4.6-11.4 0.3-15.9s-11.4-4.6-15.8-0.3c-2.3 2.2-55.4 54-63.5 140.5-0.6 6.2 4 11.6 10.1 12.2 0.2 0.2 0.4 0.2 0.6 0.2z" fill="#FFFFFF" p-id="9854"></path><path d="M380.478535 442.075089a12.600504 12.600504 0 1 0 1.092661-25.17731 12.600504 12.600504 0 1 0-1.092661 25.17731Z" fill="#FFFFFF" p-id="9855"></path></svg>